<?xml version="1.0" encoding="UTF-8"?>
<svg version="1.1" xmlns="http://www.w3.org/2000/svg" width="161" height="242">
<path d="M0 0 C4.81233829 1.65289616 9.19548414 4.62730296 13.18359375 7.75 C13.18359375 8.41 13.18359375 9.07 13.18359375 9.75 C13.84359375 9.75 14.50359375 9.75 15.18359375 9.75 C18.34087767 13.82970608 19.9842418 17.60452693 21.30859375 22.5625 C21.80359375 24.39554688 21.80359375 24.39554688 22.30859375 26.265625 C23.19863545 29.80989818 24.00928073 33.35869391 24.74609375 36.9375 C25.16811496 38.9188631 25.16811496 38.9188631 26.30859375 41.3125 C28.16092071 46.47255368 27.63166685 51.04338798 25.6640625 56.01171875 C25.38844482 56.71643311 25.11282715 57.42114746 24.82885742 58.1472168 C24.61592041 58.67613525 24.4029834 59.20505371 24.18359375 59.75 C25.26898438 60.29269531 26.354375 60.83539063 27.47265625 61.39453125 C33.70963542 64.51302083 39.94661458 67.63151042 46.18359375 70.75 C46.18359375 71.41 46.18359375 72.07 46.18359375 72.75 C46.84359375 72.75 47.50359375 72.75 48.18359375 72.75 C48.82283085 74.03468039 49.44393357 75.32838107 50.05859375 76.625 C50.40664062 77.34429687 50.7546875 78.06359375 51.11328125 78.8046875 C58.34735799 98.71159941 56.73059009 123.18726811 48.46484375 142.39453125 C47.21690306 144.68876367 46.28234077 146.20165968 44.18359375 147.75 C42.86359375 147.75 41.54359375 147.75 40.18359375 147.75 C40.49296875 149.35875 40.49296875 149.35875 40.80859375 151 C41.20595325 154.97359503 40.83708657 155.44301437 39.18359375 158.75 C39.44752876 162.18230448 39.44752876 162.18230448 40.18359375 165.75 C41.27948416 171.55821918 41.27948416 171.55821918 40.18359375 173.75 C39.52359375 173.75 38.86359375 173.75 38.18359375 173.75 C38.37949097 174.83293335 38.37949097 174.83293335 38.5793457 175.93774414 C46.60695272 221.90328206 46.60695272 221.90328206 40.18359375 234.75 C28.30359375 234.75 16.42359375 234.75 4.18359375 234.75 C2.28553805 229.68851813 0.58508061 224.9247207 -0.81640625 219.75 C-1.47640625 219.75 -2.13640625 219.75 -2.81640625 219.75 C-3.02136719 220.74902344 -3.22632813 221.74804688 -3.4375 222.77734375 C-3.70691406 224.06769531 -3.97632813 225.35804688 -4.25390625 226.6875 C-4.52074219 227.97527344 -4.78757813 229.26304687 -5.0625 230.58984375 C-5.81640625 233.75 -5.81640625 233.75 -6.81640625 234.75 C-9.48266655 234.83855161 -12.12287739 234.86524673 -14.7890625 234.84765625 C-15.58670517 234.8462413 -16.38434784 234.84482635 -17.2061615 234.84336853 C-19.7637806 234.83775316 -22.32131343 234.82519812 -24.87890625 234.8125 C-26.6087227 234.80748698 -28.33854051 234.80292373 -30.06835938 234.79882812 C-34.31774178 234.78777875 -38.56705937 234.77050386 -42.81640625 234.75 C-43.16051026 214.76373336 -42.86756148 195.0863101 -40.7956543 175.19189453 C-40.68963898 174.15733124 -40.68963898 174.15733124 -40.58148193 173.10186768 C-40.38806 171.24271866 -40.18356509 169.38473104 -39.97827148 167.52685547 C-39.58739343 164.79260538 -39.58739343 164.79260538 -40.81640625 162.75 C-40.88706242 160.70944995 -40.90062601 158.66665743 -40.87890625 156.625 C-40.86988281 155.52929688 -40.86085938 154.43359375 -40.8515625 153.3046875 C-40.83996094 152.46164063 -40.82835937 151.61859375 -40.81640625 150.75 C-41.88890625 150.87375 -42.96140625 150.9975 -44.06640625 151.125 C-47.81640625 150.75 -47.81640625 150.75 -50.06640625 148.625 C-53.06531479 143.25785467 -53.72036494 136.71888741 -54.81640625 130.75 C-55.00460938 129.91597656 -55.1928125 129.08195313 -55.38671875 128.22265625 C-58.13491678 112.40802577 -56.8796328 87.36772583 -47.49609375 73.84765625 C-41.80959102 68.23558418 -32.95779151 65.12779807 -25.81640625 61.75 C-26.3421285 58.71306079 -26.86293742 56.66624389 -28.37890625 53.9375 C-30.7400572 48.70190441 -30.27350647 44.28780451 -28.6796875 38.92578125 C-28.17682298 37.63246467 -27.65938273 36.34473836 -27.12890625 35.0625 C-26.57126348 33.66290026 -26.01397689 32.26315855 -25.45703125 30.86328125 C-25.17794922 30.17314941 -24.89886719 29.48301758 -24.61132812 28.77197266 C-23.87596412 26.90149209 -23.21010801 25.00408561 -22.55078125 23.10546875 C-19.94297958 15.6384633 -16.85647842 8.496706 -9.6015625 4.54296875 C-9.01246094 4.28128906 -8.42335937 4.01960937 -7.81640625 3.75 C-7.81640625 3.09 -7.81640625 2.43 -7.81640625 1.75 C-4.71206054 -0.31956381 -3.59137819 -0.61787152 0 0 Z " fill="#020407" transform="translate(81.81640625,7.25)"/>
<path d="M0 0 C3.5468082 0.37348487 6.45340823 1.52511554 9.64453125 3.06640625 C10.90620117 3.6706543 10.90620117 3.6706543 12.19335938 4.28710938 C13.05767578 4.70798828 13.92199219 5.12886719 14.8125 5.5625 C15.69615234 5.98724609 16.57980469 6.41199219 17.49023438 6.84960938 C19.66264337 7.89471424 21.83239957 8.94496762 24 10 C24 10.66 24 11.32 24 12 C24.66 12 25.32 12 26 12 C26.6392371 13.28468039 27.26033982 14.57838107 27.875 15.875 C28.39707031 16.95394531 28.39707031 16.95394531 28.9296875 18.0546875 C31.92500233 26.29726917 32.42323125 34.80373478 32.75 43.5 C32.80542969 44.56347656 32.86085937 45.62695312 32.91796875 46.72265625 C33.19028817 53.44812075 32.66602168 59.47444463 31 66 C29.68 65.67 28.36 65.34 27 65 C26.06576355 68.01031744 25.95550089 68.86650268 27 72 C23.535 72.495 23.535 72.495 20 73 C18.19933758 70.0534615 16.49836105 67.11198065 15 64 C14.67 64.66 14.34 65.32 14 66 C11.69 66 9.38 66 7 66 C6.34 64.35 5.68 62.7 5 61 C4.21625 61.495 3.4325 61.99 2.625 62.5 C0 64 0 64 -2 64 C-2.33 64.99 -2.66 65.98 -3 67 C-4.37562854 65.71034824 -5.70766393 64.37310707 -7 63 C-7 62.34 -7 61.68 -7 61 C-5.68 61 -4.36 61 -3 61 C-2.73445313 60.27039063 -2.46890625 59.54078125 -2.1953125 58.7890625 C-0.06864805 53.82684545 3.15259239 48.47763198 8.0625 45.9296875 C9.41250142 45.48480067 10.7722096 45.06812908 12.140625 44.68359375 C15.12547391 43.58622283 16.88859983 41.29770019 19 39 C19.66 39 20.32 39 21 39 C21 38.34 21 37.68 21 37 C18.36 38.98 15.72 40.96 13 43 C12.34 42.67 11.68 42.34 11 42 C12.98 39.525 12.98 39.525 15 37 C14.34 36.67 13.68 36.34 13 36 C12.67 35.01 12.34 34.02 12 33 C11.67 33.66 11.34 34.32 11 35 C10.34 35 9.68 35 9 35 C9.14230808 33.58297487 9.28900746 32.1663904 9.4375 30.75 C9.51871094 29.96109375 9.59992188 29.1721875 9.68359375 28.359375 C9.97634993 26.17635361 10.42064419 24.1226818 11 22 C10.34 22 9.68 22 9 22 C8.67 25.3 8.34 28.6 8 32 C7.67 32 7.34 32 7 32 C6.93941406 31.04738281 6.87882812 30.09476563 6.81640625 29.11328125 C6.69072266 27.23189453 6.69072266 27.23189453 6.5625 25.3125 C6.48128906 24.07113281 6.40007812 22.82976562 6.31640625 21.55078125 C6.05508683 18.61819663 5.65201621 15.86558383 5 13 C4.01 14.485 4.01 14.485 3 16 C2.875 9.25 2.875 9.25 4 7 C3.34 7 2.68 7 2 7 C1.34 8.32 0.68 9.64 0 11 C-0.33 10.01 -0.66 9.02 -1 8 C-1.99 8.66 -2.98 9.32 -4 10 C-2.25 2.25 -2.25 2.25 0 0 Z " fill="#1E2326" transform="translate(104,68)"/>
<path d="M0 0 C4.2967595 0.57342494 7.18479721 2.10158964 10.8125 4.4375 C11.78832031 5.05496094 12.76414062 5.67242188 13.76953125 6.30859375 C14.50558594 6.86675781 15.24164063 7.42492187 16 8 C16 8.66 16 9.32 16 10 C16.66 10 17.32 10 18 10 C24.93821994 19.00608157 26.46742621 30.98966723 28 42 C27.05125 41.113125 26.1025 40.22625 25.125 39.3125 C17.45262055 32.86037971 10.22170196 30.4346584 0.35766602 29.71972656 C-1.43824448 29.57255291 -3.22236241 29.29488848 -5 29 C-5.66 28.01 -6.32 27.02 -7 26 C-5.68 25.34 -4.36 24.68 -3 24 C-4.65 24 -6.3 24 -8 24 C-8 23.34 -8 22.68 -8 22 C-4.25 20.875 -4.25 20.875 -2 22 C-2 21.34 -2 20.68 -2 20 C-2.99 19.67 -3.98 19.34 -5 19 C-4.38125 18.855625 -3.7625 18.71125 -3.125 18.5625 C-0.96741678 18.06847775 -0.96741678 18.06847775 1 17 C-0.62581757 12.03690704 -0.62581757 12.03690704 -4.1875 8.5625 C-4.785625 8.376875 -5.38375 8.19125 -6 8 C-4 6 -4 6 -1 5 C-0.67 3.35 -0.34 1.7 0 0 Z " fill="#34393C" transform="translate(79,7)"/>
<path d="M0 0 C0 1.98 0 3.96 0 6 C-1.65 6.66 -3.3 7.32 -5 8 C-4.401875 8.165 -3.80375 8.33 -3.1875 8.5 C0.18527798 10.81276204 0.8331548 14.19891337 2 18 C-1 19 -1 19 -4 19 C-3.34 19.33 -2.68 19.66 -2 20 C-2 20.66 -2 21.32 -2 22 C-3.98 22 -5.96 22 -8 22 C-8 22.66 -8 23.32 -8 24 C-6.35 23.67 -4.7 23.34 -3 23 C-3 23.99 -3 24.98 -3 26 C-3.99 26.33 -4.98 26.66 -6 27 C-4.35 27.33 -2.7 27.66 -1 28 C-4.06007569 31.06007569 -7.80971264 31.21950275 -11.95703125 32.12109375 C-15.04607597 33.01330821 -17.29137741 34.30297468 -20 36 C-20.66 36 -21.32 36 -22 36 C-22 25.19455138 -17.8129883 14.5498251 -10.25 6.75 C-7.34285714 4 -7.34285714 4 -5 4 C-5 3.34 -5 2.68 -5 2 C-2 0 -2 0 0 0 Z " fill="#080D10" transform="translate(79,7)"/>
<path d="M0 0 C0.33 0.99 0.66 1.98 1 3 C3.475 3.495 3.475 3.495 6 4 C6.33 5.98 6.66 7.96 7 10 C6.360625 10.103125 5.72125 10.20625 5.0625 10.3125 C4.381875 10.539375 3.70125 10.76625 3 11 C2.67 11.99 2.34 12.98 2 14 C1.34 14.66 0.68 15.32 0 16 C-0.66 16.99 -1.32 17.98 -2 19 C-2.33 19 -2.66 19 -3 19 C-3.33 19.66 -3.66 20.32 -4 21 C-6.31 21 -8.62 21 -11 21 C-11.66 19.35 -12.32 17.7 -13 16 C-13.78375 16.495 -14.5675 16.99 -15.375 17.5 C-18 19 -18 19 -20 19 C-20.33 19.99 -20.66 20.98 -21 22 C-22.37562854 20.71034824 -23.70766393 19.37310707 -25 18 C-25 17.34 -25 16.68 -25 16 C-23.68 16 -22.36 16 -21 16 C-20.73832031 15.27167969 -20.47664063 14.54335937 -20.20703125 13.79296875 C-18.97545516 10.94320532 -17.57125597 8.77266024 -15.6875 6.3125 C-14.82705078 5.16201172 -14.82705078 5.16201172 -13.94921875 3.98828125 C-9.84358442 -0.19963032 -5.64256083 -0.2212769 0 0 Z " fill="#181A1B" transform="translate(122,113)"/>
<path d="M0 0 C0.99 0.33 1.98 0.66 3 1 C3.33333333 2.33333333 3.66666667 3.66666667 4 5 C4.99 5.33 5.98 5.66 7 6 C9.04108797 9.00791911 9.19878036 11.42195344 9 15 C10.32 14.01 11.64 13.02 13 12 C13.97798721 15.79568461 13.92653069 18.5005999 13.0625 22.3125 C12.86785156 23.19550781 12.67320312 24.07851562 12.47265625 24.98828125 C12.31667969 25.65214844 12.16070312 26.31601563 12 27 C10.68 26.67 9.36 26.34 8 26 C7.06576355 29.01031744 6.95550089 29.86650268 8 33 C4.535 33.495 4.535 33.495 1 34 C-2.36944106 29.50741192 -2.6041049 26.43694413 -2 21 C0.20740681 18.03141843 1.48597373 17.17134209 5 16 C5 14.02 5 12.04 5 10 C1.04 10 -2.92 10 -7 10 C-7 9.67 -7 9.34 -7 9 C-4.69 9 -2.38 9 0 9 C-0.45375 8.54625 -0.9075 8.0925 -1.375 7.625 C-2.58333333 6.41666667 -3.79166667 5.20833333 -5 4 C-2.6875 1.9375 -2.6875 1.9375 0 0 Z " fill="#0F1315" transform="translate(123,107)"/>
<path d="M0 0 C1.9375 0.75 1.9375 0.75 4 2 C4.12375 2.66 4.2475 3.32 4.375 4 C4.58125 4.66 4.7875 5.32 5 6 C7.99615946 7.3045656 7.99615946 7.3045656 11 8 C10.2884375 9.11375 10.2884375 9.11375 9.5625 10.25 C8.22130673 12.61050015 7.487688 14.36648477 7 17 C10.04913228 18.01111093 10.04913228 18.01111093 13 17 C11.75023244 20.65316671 11.32901247 21.78065836 8 24 C7.0409375 24.4640625 7.0409375 24.4640625 6.0625 24.9375 C3.83823891 26.08333147 1.96421746 27.45668628 0 29 C-0.66 28.67 -1.32 28.34 -2 28 C-0.68 26.35 0.64 24.7 2 23 C1.34 22.67 0.68 22.34 0 22 C-0.33 21.01 -0.66 20.02 -1 19 C-1.33 19.66 -1.66 20.32 -2 21 C-2.66 21 -3.32 21 -4 21 C-3.91262287 18.43593328 -3.80570881 15.87517784 -3.6875 13.3125 C-3.66494141 12.59126953 -3.64238281 11.87003906 -3.61914062 11.12695312 C-3.39321663 6.62901178 -2.75062688 3.73878775 0 0 Z " fill="#080C0F" transform="translate(117,82)"/>
<path d="M0 0 C0.33 0.99 0.66 1.98 1 3 C2.65 3.33 4.3 3.66 6 4 C6.33 5.98 6.66 7.96 7 10 C6.360625 10.103125 5.72125 10.20625 5.0625 10.3125 C4.381875 10.539375 3.70125 10.76625 3 11 C2.67 11.99 2.34 12.98 2 14 C-5.625 15.25 -5.625 15.25 -9 13 C-8.67 12.01 -8.34 11.02 -8 10 C-8.99 9.67 -9.98 9.34 -11 9 C-12.10663629 6.53134981 -12.13073382 5.38130699 -11.25 2.8125 C-8.60218101 -1.02683754 -4.21223977 -0.07947622 0 0 Z " fill="#433B36" transform="translate(122,113)"/>
<path d="M0 0 C3.44165321 0.35299007 5.06872538 1.04581692 8 3 C7.79375 3.7425 7.5875 4.485 7.375 5.25 C6.95591249 8.32330841 7.38050989 9.42786866 9 12 C9.66 11.67 10.32 11.34 11 11 C10.67 12.65 10.34 14.3 10 16 C10.66 16.33 11.32 16.66 12 17 C11.79503906 17.66386719 11.59007813 18.32773438 11.37890625 19.01171875 C11.10949219 19.89472656 10.84007813 20.77773437 10.5625 21.6875 C10.29566406 22.55761719 10.02882813 23.42773438 9.75390625 24.32421875 C9.03655471 26.87025921 8.482459 29.4003423 8 32 C7.67 32 7.34 32 7 32 C6.93941406 31.04738281 6.87882812 30.09476563 6.81640625 29.11328125 C6.69072266 27.23189453 6.69072266 27.23189453 6.5625 25.3125 C6.48128906 24.07113281 6.40007812 22.82976562 6.31640625 21.55078125 C6.05508683 18.61819663 5.65201621 15.86558383 5 13 C4.01 14.485 4.01 14.485 3 16 C2.875 9.25 2.875 9.25 4 7 C3.34 7 2.68 7 2 7 C1.34 8.32 0.68 9.64 0 11 C-0.33 10.01 -0.66 9.02 -1 8 C-1.99 8.66 -2.98 9.32 -4 10 C-2.25 2.25 -2.25 2.25 0 0 Z " fill="#171C1F" transform="translate(104,68)"/>
<path d="M0 0 C1.9375 0.75 1.9375 0.75 4 2 C4.12375 2.66 4.2475 3.32 4.375 4 C4.684375 4.99 4.684375 4.99 5 6 C7.99615946 7.3045656 7.99615946 7.3045656 11 8 C10.2884375 9.11375 10.2884375 9.11375 9.5625 10.25 C7.93270937 12.8112686 7.93270937 12.8112686 7.5 15.1875 C7 17 7 17 4 19 C4 18.34 4 17.68 4 17 C3.34 16.67 2.68 16.34 2 16 C2.33 14.35 2.66 12.7 3 11 C1.68 11.33 0.36 11.66 -1 12 C-1.02687279 10.18757948 -1.04633715 8.37504767 -1.0625 6.5625 C-1.07410156 5.55316406 -1.08570312 4.54382813 -1.09765625 3.50390625 C-1 1 -1 1 0 0 Z " fill="#171C1F" transform="translate(117,82)"/>
<path d="M0 0 C0.99386719 0.10183594 1.98773438 0.20367187 3.01171875 0.30859375 C3.77097656 0.39238281 4.53023437 0.47617188 5.3125 0.5625 C4.84199219 1.14515625 4.37148437 1.7278125 3.88671875 2.328125 C1.84148578 5.23103632 1.16760475 8.14208099 0.3125 11.5625 C-1.3375 11.5625 -2.9875 11.5625 -4.6875 11.5625 C-4.0275 11.2325 -3.3675 10.9025 -2.6875 10.5625 C-2.6875 9.9025 -2.6875 9.2425 -2.6875 8.5625 C-3.3475 8.5625 -4.0075 8.5625 -4.6875 8.5625 C-4.6875 7.9025 -4.6875 7.2425 -4.6875 6.5625 C-6.3375 6.5625 -7.9875 6.5625 -9.6875 6.5625 C-9.3575 4.5825 -9.0275 2.6025 -8.6875 0.5625 C-5.3763987 -0.54120043 -3.44001051 -0.36423641 0 0 Z " fill="#231F1C" transform="translate(60.6875,124.4375)"/>
<path d="M0 0 C3.465 1.485 3.465 1.485 7 3 C6.67 4.32 6.34 5.64 6 7 C4.35 7 2.7 7 1 7 C2.98 7.66 4.96 8.32 7 9 C7 9.99 7 10.98 7 12 C4.69 12 2.38 12 0 12 C-0.33 12.66 -0.66 13.32 -1 14 C-3.0625 14.625 -3.0625 14.625 -5 15 C-5.66 14.01 -6.32 13.02 -7 12 C-5.68 11.34 -4.36 10.68 -3 10 C-4.65 10 -6.3 10 -8 10 C-8 9.34 -8 8.68 -8 8 C-4.25 6.875 -4.25 6.875 -2 8 C-2 7.34 -2 6.68 -2 6 C-2.99 5.67 -3.98 5.34 -5 5 C-4.38125 4.855625 -3.7625 4.71125 -3.125 4.5625 C-0.96741678 4.06847775 -0.96741678 4.06847775 1 3 C0.67 2.01 0.34 1.02 0 0 Z " fill="#1B2023" transform="translate(79,21)"/>
<path d="M0 0 C0.33 1.32 0.66 2.64 1 4 C2.32 4.33 3.64 4.66 5 5 C5 5.66 5 6.32 5 7 C5.66 7 6.32 7 7 7 C7.33 8.32 7.66 9.64 8 11 C6.35333797 10.8864371 4.70763918 10.75882619 3.0625 10.625 C2.14597656 10.55539063 1.22945312 10.48578125 0.28515625 10.4140625 C-0.84599609 10.20910156 -0.84599609 10.20910156 -2 10 C-2.33 9.34 -2.66 8.68 -3 8 C-5.31 8 -7.62 8 -10 8 C-10.66 6.68 -11.32 5.36 -12 4 C-11.01 4 -10.02 4 -9 4 C-9.33 4.66 -9.66 5.32 -10 6 C-7.00847418 5.22520264 -7.00847418 5.22520264 -4 4 C-3.67 3.01 -3.34 2.02 -3 1 C-2.01 0.67 -1.02 0.34 0 0 Z " fill="#0C0F10" transform="translate(51,126)"/>
<path d="M0 0 C0.66 0.33 1.32 0.66 2 1 C2 1.66 2 2.32 2 3 C2.88945313 3.38285156 2.88945313 3.38285156 3.796875 3.7734375 C6.21224538 5.11816498 7.51211706 6.49214367 9.25 8.625 C9.77078125 9.25664063 10.2915625 9.88828125 10.828125 10.5390625 C11.40820312 11.26222656 11.40820312 11.26222656 12 12 C9.34501768 13.0169313 8.30844625 13.13022151 5.640625 12.00390625 C4.85171875 11.52824219 4.0628125 11.05257812 3.25 10.5625 C2.45078125 10.08941406 1.6515625 9.61632813 0.828125 9.12890625 C0.22484375 8.75636719 -0.3784375 8.38382813 -1 8 C-1 7.34 -1 6.68 -1 6 C-2.32 6 -3.64 6 -5 6 C-5 5.34 -5 4.68 -5 4 C-4.01 4 -3.02 4 -2 4 C-2.99 3.34 -3.98 2.68 -5 2 C-3.35 2 -1.7 2 0 2 C0 1.34 0 0.68 0 0 Z " fill="#3A3F42" transform="translate(92,30)"/>
<path d="M0 0 C0.66 0 1.32 0 2 0 C3.23402862 4.77092956 3.11265112 9.42469446 3.0625 14.3125 C3.05798828 15.14845703 3.05347656 15.98441406 3.04882812 16.84570312 C3.03710548 18.89716649 3.01917203 20.94859273 3 23 C2.67 23 2.34 23 2 23 C1.67 25.64 1.34 28.28 1 31 C0.34 31 -0.32 31 -1 31 C-1.02908633 26.77084783 -1.04682792 22.54172148 -1.0625 18.3125 C-1.07087891 17.11431641 -1.07925781 15.91613281 -1.08789062 14.68164062 C-1.09111328 13.52470703 -1.09433594 12.36777344 -1.09765625 11.17578125 C-1.10289307 10.11270752 -1.10812988 9.04963379 -1.11352539 7.9543457 C-1.00716844 5.1865491 -0.62894788 2.69207103 0 0 Z " fill="#121518" transform="translate(80,85)"/>
<path d="M0 0 C0.66 1.32 1.32 2.64 2 4 C0.1875 6 0.1875 6 -2 8 C-2.99 8 -3.98 8 -5 8 C-5 9.98 -5 11.96 -5 14 C-4.34 14.33 -3.68 14.66 -3 15 C-3.804375 15.268125 -4.60875 15.53625 -5.4375 15.8125 C-6.283125 16.204375 -7.12875 16.59625 -8 17 C-8.33 17.99 -8.66 18.98 -9 20 C-10.37562854 18.71034824 -11.70766393 17.37310707 -13 16 C-13 15.34 -13 14.68 -13 14 C-11.68 14 -10.36 14 -9 14 C-8.74476562 13.27425781 -8.48953125 12.54851562 -8.2265625 11.80078125 C-6.93198926 8.8447016 -5.39544896 6.69435334 -3.375 4.1875 C-2.74335937 3.39730469 -2.11171875 2.60710937 -1.4609375 1.79296875 C-0.97882813 1.20128906 -0.49671875 0.60960938 0 0 Z " fill="#101415" transform="translate(110,115)"/>
<path d="M0 0 C2.64 0 5.28 0 8 0 C7.773125 0.515625 7.54625 1.03125 7.3125 1.5625 C6.84172118 5.23457482 8.44604319 7.71278368 10 11 C10.33 11.99 10.66 12.98 11 14 C11.66 14 12.32 14 13 14 C12.67 14.99 12.34 15.98 12 17 C11.67 16.34 11.34 15.68 11 15 C10.34 15 9.68 15 9 15 C6 10.61538462 6 10.61538462 6 8 C5.34 8 4.68 8 4 8 C2.3125 5.625 2.3125 5.625 1 3 C1.33 2.34 1.66 1.68 2 1 C1.34 0.67 0.68 0.34 0 0 Z " fill="#161B1E" transform="translate(73,126)"/>
<path d="M0 0 C0.33 0.66 0.66 1.32 1 2 C-1.84937792 5.00767669 -4.22698701 7.29605865 -8 9 C-9.35113205 9.97581759 -10.68946944 10.97029741 -12 12 C-12.66 11.67 -13.32 11.34 -14 11 C-12.68 9.35 -11.36 7.7 -10 6 C-10.66 5.67 -11.32 5.34 -12 5 C-8.56188831 1.83693724 -5.55659404 1.51584083 -1 1 C-0.67 0.67 -0.34 0.34 0 0 Z " fill="#101518" transform="translate(129,99)"/>
<path d="M0 0 C3.68754757 0.49831724 5.60490662 1.10067643 8 4 C6.1875 4.625 6.1875 4.625 4 5 C3.01 4.34 2.02 3.68 1 3 C1.185625 4.134375 1.37125 5.26875 1.5625 6.4375 C1.706875 7.613125 1.85125 8.78875 2 10 C1.67 10.33 1.34 10.66 1 11 C1.66 11.66 2.32 12.32 3 13 C1.68 13 0.36 13 -1 13 C-1.33 12.01 -1.66 11.02 -2 10 C-4.00016466 8.79117904 -4.00016466 8.79117904 -6 8 C-4 6 -4 6 -1 5 C-0.67 3.35 -0.34 1.7 0 0 Z " fill="#22272A" transform="translate(79,7)"/>
<path d="M0 0 C-0.66 1.65 -1.32 3.3 -2 5 C-2.66 5 -3.32 5 -4 5 C-4 5.66 -4 6.32 -4 7 C-5.98 7 -7.96 7 -10 7 C-10 5.02 -10 3.04 -10 1 C-6.21812119 -0.83691257 -4.05431692 -1.15837626 0 0 Z " fill="#2B2623" transform="translate(115,122)"/>
<path d="M0 0 C0.33 0 0.66 0 1 0 C1.22211116 1.93596892 1.42722992 3.87389328 1.625 5.8125 C1.74101562 6.89144531 1.85703125 7.97039062 1.9765625 9.08203125 C2 12 2 12 0 15 C-0.66 15 -1.32 15 -2 15 C-4.203125 7.77864583 -4.203125 7.77864583 -3.25 4.125 C-2 2 -2 2 0 0 Z " fill="#202528" transform="translate(134,107)"/>
<path d="M0 0 C0.66 0.66 1.32 1.32 2 2 C1.61233695 5.58588324 0.41433748 8.69987921 -1 12 C-1.66 11.67 -2.32 11.34 -3 11 C-3 10.34 -3 9.68 -3 9 C-5.64 8.67 -8.28 8.34 -11 8 C-10.67 7.01 -10.34 6.02 -10 5 C-7.36 5 -4.72 5 -2 5 C-1.34 3.35 -0.68 1.7 0 0 Z " fill="#191D1F" transform="translate(135,119)"/>
<path d="M0 0 C0.99 0.33 1.98 0.66 3 1 C2.835 2.0725 2.67 3.145 2.5 4.25 C1.91189085 8.03028752 1.91189085 8.03028752 2 12 C1.34 11.67 0.68 11.34 0 11 C-0.66 11.66 -1.32 12.32 -2 13 C-2.16682272 8.07872966 -2.24828052 4.49656104 0 0 Z " fill="#181D20" transform="translate(103,82)"/>
<path d="M0 0 C2.18742014 3.2811302 2.54442806 5.33084356 3.125 9.1875 C3.29257813 10.27417969 3.46015625 11.36085938 3.6328125 12.48046875 C3.75398438 13.31191406 3.87515625 14.14335938 4 15 C2.02 13.35 0.04 11.7 -2 10 C-1.34 9.01 -0.68 8.02 0 7 C-1.32 5.68 -2.64 4.36 -4 3 C-3.67 2.34 -3.34 1.68 -3 1 C-2.34 1.33 -1.68 1.66 -1 2 C-0.67 1.34 -0.34 0.68 0 0 Z " fill="#292E31" transform="translate(103,34)"/>
<path d="M0 0 C3.465 1.485 3.465 1.485 7 3 C6.67 4.32 6.34 5.64 6 7 C-1.50769231 7.36923077 -1.50769231 7.36923077 -4 5.5 C-4.33 5.005 -4.66 4.51 -5 4 C-3.02 4 -1.04 4 1 4 C0.67 2.68 0.34 1.36 0 0 Z " fill="#22272A" transform="translate(79,21)"/>
<path d="M0 0 C0.33 0.99 0.66 1.98 1 3 C-4.94 3.495 -4.94 3.495 -11 4 C-10.67 3.01 -10.34 2.02 -10 1 C-6.52674819 -0.1577506 -3.63932552 -0.06866652 0 0 Z " fill="#756B65" transform="translate(122,113)"/>
<path d="M0 0 C0.66 1.32 1.32 2.64 2 4 C0.1875 6 0.1875 6 -2 8 C-2.99 8 -3.98 8 -5 8 C-5 9.32 -5 10.64 -5 12 C-5.66 12 -6.32 12 -7 12 C-6.67566492 6.64847115 -3.50295176 3.71719957 0 0 Z " fill="#1E1C1B" transform="translate(110,115)"/>
<path d="M0 0 C2.625 1.0625 2.625 1.0625 3.62109375 2.9140625 C4.37207142 4.94781064 5.04019594 6.97527248 5.625 9.0625 C4.305 9.0625 2.985 9.0625 1.625 9.0625 C1.625 7.4125 1.625 5.7625 1.625 4.0625 C0.635 4.0625 -0.355 4.0625 -1.375 4.0625 C-1.375 3.4025 -1.375 2.7425 -1.375 2.0625 C-2.035 1.7325 -2.695 1.4025 -3.375 1.0625 C-2.375 0.0625 -2.375 0.0625 0 0 Z " fill="#151A1D" transform="translate(75.375,15.9375)"/>
<path d="M0 0 C0 1.98 0 3.96 0 6 C-3.07322544 6.91058531 -5.80097361 7.08886184 -9 7 C-8.34 6.01 -7.68 5.02 -7 4 C-6.34 4 -5.68 4 -5 4 C-5 3.34 -5 2.68 -5 2 C-2 0 -2 0 0 0 Z " fill="#0F1317" transform="translate(79,7)"/>
<path d="M0 0 C2.3431213 0.25561323 4.67843403 0.59270772 7 1 C7.33 1.66 7.66 2.32 8 3 C10.52733235 3.65555119 10.52733235 3.65555119 13 4 C12.67 4.66 12.34 5.32 12 6 C6.06 5.01 6.06 5.01 0 4 C0 2.68 0 1.36 0 0 Z " fill="#292E31" transform="translate(78,32)"/>
<path d="M0 0 C-0.8125 2.4375 -0.8125 2.4375 -2 5 C-2.99 5.33 -3.98 5.66 -5 6 C-5.66 5.67 -6.32 5.34 -7 5 C-7 3.68 -7 2.36 -7 1 C-4.53721199 -0.231394 -2.7204945 -0.07159196 0 0 Z " fill="#3F3630" transform="translate(64,126)"/>
<path d="M0 0 C1.134375 0.020625 2.26875 0.04125 3.4375 0.0625 C3.1075 1.7125 2.7775 3.3625 2.4375 5.0625 C1.7775 5.0625 1.1175 5.0625 0.4375 5.0625 C0.1075 5.7225 -0.2225 6.3825 -0.5625 7.0625 C-2.8102975 5.01016315 -3.5647242 4.05582739 -4.5625 1.0625 C-3.5625 0.0625 -3.5625 0.0625 0 0 Z " fill="#212323" transform="translate(118.5625,126.9375)"/>
<path d="M0 0 C0.90105469 0.00902344 1.80210938 0.01804687 2.73046875 0.02734375 C3.41753906 0.03894531 4.10460937 0.05054687 4.8125 0.0625 C4.8125 0.7225 4.8125 1.3825 4.8125 2.0625 C-1.6225 2.5575 -1.6225 2.5575 -8.1875 3.0625 C-8.1875 2.4025 -8.1875 1.7425 -8.1875 1.0625 C-5.17259443 0.05753148 -3.14568308 -0.04085303 0 0 Z " fill="#9B8E86" transform="translate(123.1875,116.9375)"/>
<path d="M0 0 C2.6015625 0.0234375 2.6015625 0.0234375 5.625 0.375 C6.62789062 0.48585938 7.63078125 0.59671875 8.6640625 0.7109375 C9.82035156 0.85402344 9.82035156 0.85402344 11 1 C10.34 1.66 9.68 2.32 9 3 C7.7625 2.9690625 7.7625 2.9690625 6.5 2.9375 C5.675 2.958125 4.85 2.97875 4 3 C3.01 4.485 3.01 4.485 2 6 C0 5 0 5 -2 2 C-1.34 1.34 -0.68 0.68 0 0 Z " fill="#2A2521" transform="translate(55,124)"/>
<path d="M0 0 C2.31 1.98 4.62 3.96 7 6 C6.67 7.32 6.34 8.64 6 10 C2.51668565 6.98112756 1.20842856 4.43090471 0 0 Z " fill="#020609" transform="translate(121,130)"/>
<path d="M0 0 C-2.58926331 2.58926331 -4.02705279 2.37398043 -7.625 2.625 C-8.62789063 2.69976562 -9.63078125 2.77453125 -10.6640625 2.8515625 C-11.82035156 2.92503906 -11.82035156 2.92503906 -13 3 C-13 2.34 -13 1.68 -13 1 C-8.59085217 -0.10228696 -4.51617599 -0.07654536 0 0 Z " fill="#998C85" transform="translate(129,121)"/>
<path d="M0 0 C3.77545388 1.09068668 6.47043472 1.9083091 9 5 C8.01 6.32 7.02 7.64 6 9 C5.566875 8.030625 5.13375 7.06125 4.6875 6.0625 C3.2985139 2.72268235 3.2985139 2.72268235 0 2 C0 1.34 0 0.68 0 0 Z " fill="#1D2124" transform="translate(123,127)"/>
<path d="M0 0 C0.75 1.75 0.75 1.75 1 4 C-0.9375 6.25 -0.9375 6.25 -3 8 C-3 7.34 -3 6.68 -3 6 C-3.66 5.67 -4.32 5.34 -5 5 C-3.35 3.35 -1.7 1.7 0 0 Z " fill="#0F1316" transform="translate(124,93)"/>
<path d="M0 0 C0.66 0.33 1.32 0.66 2 1 C2 2.32 2 3.64 2 5 C1.01 4.67 0.02 4.34 -1 4 C-3.14255793 4.38932856 -3.14255793 4.38932856 -5 5 C-4 2 -4 2 -2.0625 0.75 C-1.381875 0.5025 -0.70125 0.255 0 0 Z " fill="#252A2D" transform="translate(129,81)"/>
<path d="M0 0 C3.68754757 0.49831724 5.60490662 1.10067643 8 4 C5.39417629 4.93065133 4.35801776 5.14917407 1.75 4.0625 C1.1725 3.711875 0.595 3.36125 0 3 C0 2.01 0 1.02 0 0 Z " fill="#2B2F31" transform="translate(79,7)"/>
<path d="M0 0 C2.475 0.99 2.475 0.99 5 2 C5 3.98 5 5.96 5 8 C3.5 6.625 3.5 6.625 2 5 C2 4.34 2 3.68 2 3 C1.34 3 0.68 3 0 3 C0 2.01 0 1.02 0 0 Z " fill="#151A1D" transform="translate(84,127)"/>
<path d="M0 0 C0 1.98 0 3.96 0 6 C-1.32 5.67 -2.64 5.34 -4 5 C-4 3.68 -4 2.36 -4 1 C-1 0 -1 0 0 0 Z " fill="#514740" transform="translate(109,122)"/>
<path d="M0 0 C0.66 1.32 1.32 2.64 2 4 C0.02 4.33 -1.96 4.66 -4 5 C-3.67 3.68 -3.34 2.36 -3 1 C-2.34 1.33 -1.68 1.66 -1 2 C-0.67 1.34 -0.34 0.68 0 0 Z " fill="#0F1317" transform="translate(115,129)"/>
<path d="M0 0 C1.32 0 2.64 0 4 0 C4.33 1.98 4.66 3.96 5 6 C3.0625 5.25 3.0625 5.25 1 4 C0.25 1.875 0.25 1.875 0 0 Z " fill="#151A1D" transform="translate(97,129)"/>
<path d="M0 0 C-0.33 0.99 -0.66 1.98 -1 3 C-3.64 3.33 -6.28 3.66 -9 4 C-6.10130984 1.70103884 -3.84906588 0 0 0 Z " fill="#796E68" transform="translate(125,124)"/>
<path d="M0 0 C0.33 0.66 0.66 1.32 1 2 C1.99 1.67 2.98 1.34 4 1 C4 1.66 4 2.32 4 3 C2.02 3.99 0.04 4.98 -2 6 C-1.125 1.125 -1.125 1.125 0 0 Z " fill="#111619" transform="translate(119,88)"/>
<path d="M0 0 C1.32 0 2.64 0 4 0 C4 0.99 4 1.98 4 3 C2.02 3.66 0.04 4.32 -2 5 C-1.34 3.35 -0.68 1.7 0 0 Z " fill="#0E1316" transform="translate(64,35)"/>
</svg>
